<svg xmlns="http://www.w3.org/2000/svg" width="22" height="22" viewBox="0 0 256 256">
  <path
    d="M241.46 108.652l-30.26-4.946a86.697 86.697 0 00-7.224-17.434l17.664-25.175a5.127 5.127 0 00-.574-6.564l-19.911-19.901a5.118 5.118 0 00-6.61-.533l-24.797 17.823a85.88 85.88 0 00-17.571-7.306l-5.28-30.137a5.124 5.124 0 00-5.042-4.239h-28.16a5.12 5.12 0 00-5.054 4.296l-4.894 29.972a86.254 86.254 0 00-17.598 7.23L61.42 34.074a5.123 5.123 0 00-6.6.542l-19.9 19.902a5.112 5.112 0 00-.574 6.553L51.748 85.97a86.72 86.72 0 00-7.363 17.715l-29.854 4.972a5.122 5.122 0 00-4.28 5.048v28.16a5.124 5.124 0 004.223 5.043l29.855 5.294a86.29 86.29 0 007.363 17.715L34.074 194.56a5.13 5.13 0 00.542 6.6l19.907 19.922a5.12 5.12 0 006.559.573l24.934-17.464a86.38 86.38 0 0017.638 7.29l4.998 30.009a5.105 5.105 0 005.043 4.27h28.16a5.114 5.114 0 005.038-4.224l5.35-30.157a86.1 86.1 0 0017.562-7.347l25.113 17.618a5.113 5.113 0 006.564-.568l19.907-19.922a5.125 5.125 0 00.532-6.615l-17.91-24.868a85.704 85.704 0 007.204-17.45l30.3-5.319a5.119 5.119 0 004.235-5.043v-28.16a5.11 5.11 0 00-4.29-5.053zM128 163.84c-19.794 0-35.84-16.046-35.84-35.84 0-19.794 16.046-35.84 35.84-35.84 19.794 0 35.84 16.046 35.84 35.84 0 19.794-16.046 35.84-35.84 35.84z"
    fill="#00a095" />
</svg>