<svg xmlns="http://www.w3.org/2000/svg" width="24" height="24" viewBox="0 0 256 256">
  <path transform="matrix(1,0,0,1,0,0)"
    d="M 147.5 0.2 L 4.2 27.4 C 1.7 27.8 0 30 0 32.5 v 191 c 0 2.5 1.7 4.7 4.2 5.1 l 143.4 27.2 c 0.3 0.1 0.6 0.2 1 0.2 c 1.2 0 2.3 -0.4 3.2 -1.1 c 1.2 -1 1.9 -2.5 1.9 -4 V 5.1 c 0 -1.5 -0.7 -3 -1.9 -4 s -2.7 -1.2 -4.2 -1 z m 16.3 30.6 v 35.8 h 10.2 V 76.8 h -10.2 v 25.6 h 10.2 v 10.2 h -10.2 v 25.6 h 10.2 v 10.2 h -10.2 v 30.7 h 10.2 v 10.2 h -10.2 v 35.8 h 76.8 c 5.6 0 10.2 -4.6 10.2 -10.2 V 41 c 0 -5.6 -4.6 -10.2 -10.2 -10.2 z m 20.5 35.8 h 41 V 76.8 h -41 z M 34.2 80.3 h 26.2 l 13.8 28.6 c 1.1 2.3 2 5 2.9 8.2 h 0.2 c 0.5 -1.9 1.6 -4.8 3 -8.5 l 15.2 -28.3 h 24 l -28.6 47.4 L 120.3 176 H 94.9 l -16.6 -31.2 c -0.6 -1.2 -1.3 -3.3 -1.9 -6.4 h -0.2 c -0.3 1.5 -1.1 3.7 -2.2 6.7 L 57.3 176 h -25.6 l 30.6 -47.8 z m 150.1 22.1 h 41 v 10.2 h -41 z m 0 35.8 h 41 v 10.2 h -41 z m 0 41 h 41 v 10.2 h -41 z"
    fill="#ffffff" />
</svg>