<svg aria-hidden="true" viewBox="0 0 100 101" fill="none" xmlns="http://www.w3.org/2000/svg"><path d="M 100 50.6 c 0 27.6 -22.4 50 -50 50 s -50 -22.4 -50 -50 s 22.4 -50 50 -50 s 50 22.4 50 50 z m -90.9 0 c 0 22.6 18.3 40.9 40.9 40.9 c 22.6 0 40.9 -18.3 40.9 -40.9 c 0 -22.6 -18.3 -40.9 -40.9 -40.9 c -22.6 0 -40.9 18.3 -40.9 40.9 z" fill="#e5e7eb"/><path d="M93.968 39.04c2.425-.636 3.894-3.128 3.04-5.486A50 50 0 0041.735 1.279c-2.474.414-3.922 2.919-3.285 5.344.637 2.426 3.12 3.849 5.6 3.484a40.916 40.916 0 0144.131 25.769c.902 2.34 3.361 3.802 5.787 3.165z" fill="currentColor"/></svg>